<mxfile modified="2022-12-07T08:24:46.390Z" host="app.diagrams.net" agent="5.0 (X11; Linux x86_64) AppleWebKit/537.36 (KHTML, like Gecko) Chrome/108.0.0.0 Safari/537.36" etag="bwgchi4GI5_W9BHSC8bP" version="20.6.0" type="github">
  <diagram id="l8hXMBHkgcEJcSW0mbfh" name="Page-1">
    <mxGraphModel dx="868" dy="458" grid="1" gridSize="10" guides="1" tooltips="1" connect="1" arrows="1" fold="1" page="1" pageScale="1" pageWidth="1169" pageHeight="827" math="0" shadow="0">
      <root>
        <mxCell id="0" />
        <mxCell id="1" parent="0" />
        <mxCell id="ZH0j8zu4PUCCIbpQVvuF-1" value="" style="rounded=1;whiteSpace=wrap;html=1;fillColor=#dae8fc;strokeColor=#6c8ebf;" vertex="1" parent="1">
          <mxGeometry x="440" y="210" width="2000" height="1850" as="geometry" />
        </mxCell>
        <mxCell id="ZH0j8zu4PUCCIbpQVvuF-99" style="edgeStyle=orthogonalEdgeStyle;rounded=0;orthogonalLoop=1;jettySize=auto;html=1;" edge="1" parent="1" source="ZH0j8zu4PUCCIbpQVvuF-2" target="ZH0j8zu4PUCCIbpQVvuF-1">
          <mxGeometry relative="1" as="geometry" />
        </mxCell>
        <mxCell id="ZH0j8zu4PUCCIbpQVvuF-2" value="" style="rounded=1;whiteSpace=wrap;html=1;fontSize=12;fillColor=#e1d5e7;strokeColor=#9673a6;gradientColor=none;" vertex="1" parent="1">
          <mxGeometry x="470" y="400" width="1960" height="1120" as="geometry" />
        </mxCell>
        <mxCell id="ZH0j8zu4PUCCIbpQVvuF-3" value="" style="rounded=1;whiteSpace=wrap;html=1;fontSize=12;fillColor=#e1d5e7;strokeColor=#9673a6;gradientColor=none;" vertex="1" parent="1">
          <mxGeometry x="710" y="1550" width="370" height="130" as="geometry" />
        </mxCell>
        <mxCell id="ZH0j8zu4PUCCIbpQVvuF-4" value="&lt;div&gt;Cisco ISR 4331&lt;/div&gt;&lt;div&gt;Главный роутер&lt;/div&gt;&lt;div&gt;svb-vzg-rt01&lt;/div&gt;&lt;div&gt;vlan2 - mgmt - 10.84.0.0/24&lt;/div&gt;&lt;div&gt;vlan3 - VOIP - 10.84.3.0/24&lt;/div&gt;&lt;div&gt;vlan4 - servers - 10.84.4.0/24&lt;/div&gt;&lt;div&gt;vlan6 - users - 10.84.6.0/24&lt;/div&gt;&lt;div&gt;vlan7 - guest - 10.84.7.0/24&lt;/div&gt;&lt;div&gt;vlan8 - ip_cam - 10.84.8.0/24&lt;/div&gt;&lt;div&gt;vlan9 - corp_wifi - 10.84.9.0/24&lt;br&gt;&lt;/div&gt;" style="shape=mxgraph.cisco.routers.10700;html=1;pointerEvents=1;dashed=0;fillColor=#036897;strokeColor=#ffffff;strokeWidth=2;verticalLabelPosition=bottom;verticalAlign=top;align=center;outlineConnect=0;" vertex="1" parent="1">
          <mxGeometry x="1401" y="540" width="78" height="53" as="geometry" />
        </mxCell>
        <mxCell id="ZH0j8zu4PUCCIbpQVvuF-5" value="&lt;div&gt;Cisco C2960&lt;/div&gt;&lt;div&gt;Коммутатор агрегации&lt;/div&gt;&lt;div&gt;svb-ps-sw01&lt;br&gt;&lt;/div&gt;" style="shape=mxgraph.cisco.switches.layer_2_remote_switch;html=1;pointerEvents=1;dashed=0;fillColor=#036897;strokeColor=#ffffff;strokeWidth=2;verticalLabelPosition=bottom;verticalAlign=top;align=center;outlineConnect=0;" vertex="1" parent="1">
          <mxGeometry x="1389.5" y="930" width="101" height="50" as="geometry" />
        </mxCell>
        <mxCell id="ZH0j8zu4PUCCIbpQVvuF-6" value="" style="endArrow=none;html=1;" edge="1" parent="1" source="ZH0j8zu4PUCCIbpQVvuF-5" target="ZH0j8zu4PUCCIbpQVvuF-4">
          <mxGeometry width="50" height="50" relative="1" as="geometry">
            <mxPoint x="1480" y="870" as="sourcePoint" />
            <mxPoint x="1530" y="820" as="targetPoint" />
          </mxGeometry>
        </mxCell>
        <mxCell id="ZH0j8zu4PUCCIbpQVvuF-7" value="&lt;div&gt;OutPort - gi0/0/1&lt;/div&gt;&lt;div&gt;ConPort - gi0/1&lt;/div&gt;&lt;div&gt;Vlan - Trunk2-4,6-9,15,111&lt;/div&gt;&lt;div&gt;ip - 10.84.0.2&lt;br&gt; &lt;/div&gt;" style="edgeLabel;html=1;align=center;verticalAlign=middle;resizable=0;points=[];" vertex="1" connectable="0" parent="ZH0j8zu4PUCCIbpQVvuF-6">
          <mxGeometry x="-0.3625" y="1" relative="1" as="geometry">
            <mxPoint as="offset" />
          </mxGeometry>
        </mxCell>
        <mxCell id="ZH0j8zu4PUCCIbpQVvuF-8" value="&lt;div&gt;Cisco C2960&lt;/div&gt;&lt;div&gt;Коммутатор доступа&lt;/div&gt;&lt;div&gt;svb-ghk-sw_it&lt;/div&gt;" style="shape=mxgraph.cisco.switches.layer_2_remote_switch;html=1;pointerEvents=1;dashed=0;fillColor=#036897;strokeColor=#ffffff;strokeWidth=2;verticalLabelPosition=bottom;verticalAlign=top;align=center;outlineConnect=0;" vertex="1" parent="1">
          <mxGeometry x="1209" y="1010" width="101" height="50" as="geometry" />
        </mxCell>
        <mxCell id="ZH0j8zu4PUCCIbpQVvuF-9" style="edgeStyle=orthogonalEdgeStyle;rounded=0;orthogonalLoop=1;jettySize=auto;html=1;exitX=0.5;exitY=0.98;exitDx=0;exitDy=0;exitPerimeter=0;" edge="1" parent="1">
          <mxGeometry relative="1" as="geometry">
            <mxPoint x="800" y="1104.6000000000004" as="sourcePoint" />
            <mxPoint x="800" y="1105" as="targetPoint" />
          </mxGeometry>
        </mxCell>
        <mxCell id="ZH0j8zu4PUCCIbpQVvuF-10" value="&lt;div&gt;SuperMikro Server A&lt;/div&gt;&lt;div&gt;Физический сервер №1&lt;br&gt;&lt;/div&gt;" style="shape=mxgraph.cisco.servers.cisco_unified_presence_server;html=1;pointerEvents=1;dashed=0;fillColor=#036897;strokeColor=#ffffff;strokeWidth=2;verticalLabelPosition=bottom;verticalAlign=top;align=center;outlineConnect=0;" vertex="1" parent="1">
          <mxGeometry x="1650" y="660" width="54" height="67" as="geometry" />
        </mxCell>
        <mxCell id="ZH0j8zu4PUCCIbpQVvuF-11" value="&lt;div&gt;SuperMikro Server B&lt;/div&gt;&lt;div&gt;Физический сервер №2&lt;br&gt;&lt;/div&gt;" style="shape=mxgraph.cisco.servers.cisco_unified_presence_server;html=1;pointerEvents=1;dashed=0;fillColor=#036897;strokeColor=#ffffff;strokeWidth=2;verticalLabelPosition=bottom;verticalAlign=top;align=center;outlineConnect=0;" vertex="1" parent="1">
          <mxGeometry x="1650" y="900" width="54" height="67" as="geometry" />
        </mxCell>
        <mxCell id="ZH0j8zu4PUCCIbpQVvuF-12" value="" style="endArrow=none;html=1;" edge="1" parent="1" source="ZH0j8zu4PUCCIbpQVvuF-5" target="ZH0j8zu4PUCCIbpQVvuF-10">
          <mxGeometry width="50" height="50" relative="1" as="geometry">
            <mxPoint x="1860" y="1000" as="sourcePoint" />
            <mxPoint x="1910" y="950" as="targetPoint" />
          </mxGeometry>
        </mxCell>
        <mxCell id="ZH0j8zu4PUCCIbpQVvuF-13" value="&lt;div&gt;OutPort - gi0/17&lt;/div&gt;&lt;div&gt;Vlan - Access 4&lt;/div&gt;&lt;div&gt;ip - 10.84.4.100&lt;br&gt;&lt;/div&gt;" style="edgeLabel;html=1;align=center;verticalAlign=middle;resizable=0;points=[];" vertex="1" connectable="0" parent="ZH0j8zu4PUCCIbpQVvuF-12">
          <mxGeometry x="0.1911" y="2" relative="1" as="geometry">
            <mxPoint x="-28" y="34" as="offset" />
          </mxGeometry>
        </mxCell>
        <mxCell id="ZH0j8zu4PUCCIbpQVvuF-14" value="" style="endArrow=none;html=1;" edge="1" parent="1" source="ZH0j8zu4PUCCIbpQVvuF-5" target="ZH0j8zu4PUCCIbpQVvuF-11">
          <mxGeometry width="50" height="50" relative="1" as="geometry">
            <mxPoint x="1500.5000000000005" y="946.0334101382491" as="sourcePoint" />
            <mxPoint x="1640" y="893.6405529953922" as="targetPoint" />
          </mxGeometry>
        </mxCell>
        <mxCell id="ZH0j8zu4PUCCIbpQVvuF-15" value="&lt;div&gt;OutPort - gi0/18&lt;/div&gt;&lt;div&gt;Vlan - Access 4&lt;/div&gt;&lt;div&gt;ip - 10.84.4.101&lt;br&gt;&lt;/div&gt;" style="edgeLabel;html=1;align=center;verticalAlign=middle;resizable=0;points=[];" vertex="1" connectable="0" parent="ZH0j8zu4PUCCIbpQVvuF-14">
          <mxGeometry x="0.1911" y="2" relative="1" as="geometry">
            <mxPoint as="offset" />
          </mxGeometry>
        </mxCell>
        <mxCell id="ZH0j8zu4PUCCIbpQVvuF-16" value="&lt;div&gt;ESXi A&lt;/div&gt;&lt;div&gt;ip 10.84.4.102&lt;/div&gt;&lt;div&gt;Виртуальный гипервизор A&lt;br&gt;&lt;/div&gt;" style="shape=mxgraph.cisco.servers.communications_server;html=1;pointerEvents=1;dashed=0;fillColor=#036897;strokeColor=#ffffff;strokeWidth=2;verticalLabelPosition=bottom;verticalAlign=top;align=center;outlineConnect=0;" vertex="1" parent="1">
          <mxGeometry x="1830" y="720" width="54" height="56" as="geometry" />
        </mxCell>
        <mxCell id="ZH0j8zu4PUCCIbpQVvuF-17" value="" style="endArrow=none;dashed=1;html=1;dashPattern=1 3;strokeWidth=2;" edge="1" parent="1" source="ZH0j8zu4PUCCIbpQVvuF-10" target="ZH0j8zu4PUCCIbpQVvuF-16">
          <mxGeometry width="50" height="50" relative="1" as="geometry">
            <mxPoint x="1860" y="970" as="sourcePoint" />
            <mxPoint x="1910" y="920" as="targetPoint" />
          </mxGeometry>
        </mxCell>
        <mxCell id="ZH0j8zu4PUCCIbpQVvuF-18" value="&lt;div&gt;ESXi B&lt;br&gt;&lt;/div&gt;&lt;div&gt;ip 10.84.4.104&lt;/div&gt;&lt;div&gt;Виртуальный гипервизор B&lt;br&gt;&lt;/div&gt;" style="shape=mxgraph.cisco.servers.communications_server;html=1;pointerEvents=1;dashed=0;fillColor=#036897;strokeColor=#ffffff;strokeWidth=2;verticalLabelPosition=bottom;verticalAlign=top;align=center;outlineConnect=0;" vertex="1" parent="1">
          <mxGeometry x="1760" y="1110" width="54" height="56" as="geometry" />
        </mxCell>
        <mxCell id="ZH0j8zu4PUCCIbpQVvuF-19" value="" style="endArrow=none;dashed=1;html=1;dashPattern=1 3;strokeWidth=2;" edge="1" parent="1" source="ZH0j8zu4PUCCIbpQVvuF-11" target="ZH0j8zu4PUCCIbpQVvuF-18">
          <mxGeometry width="50" height="50" relative="1" as="geometry">
            <mxPoint x="1924" y="973.5" as="sourcePoint" />
            <mxPoint x="1990" y="973.5" as="targetPoint" />
          </mxGeometry>
        </mxCell>
        <mxCell id="ZH0j8zu4PUCCIbpQVvuF-20" value="&lt;div&gt;Debian 8&lt;br&gt;&lt;/div&gt;&lt;div&gt;SVB-ATS-01&lt;/div&gt;&lt;div&gt;ip - 10.84.4.35&lt;/div&gt;&lt;div&gt;Виртуальный сервер телефонии&lt;br&gt;&lt;/div&gt;" style="shape=mxgraph.cisco.servers.directory_server;html=1;pointerEvents=1;dashed=0;fillColor=#036897;strokeColor=#ffffff;strokeWidth=2;verticalLabelPosition=bottom;verticalAlign=top;align=center;outlineConnect=0;" vertex="1" parent="1">
          <mxGeometry x="1980" y="490" width="72" height="59" as="geometry" />
        </mxCell>
        <mxCell id="ZH0j8zu4PUCCIbpQVvuF-21" value="&lt;div&gt;MS WinServer 2016&lt;br&gt;&lt;/div&gt;&lt;div&gt;SVB-BKP-01&lt;/div&gt;&lt;div&gt;ip - 10.84.4.112&lt;/div&gt;&lt;div&gt;Виртуальный сервер резервных копий&lt;br&gt;&lt;/div&gt;" style="shape=mxgraph.cisco.servers.directory_server;html=1;pointerEvents=1;dashed=0;fillColor=#036897;strokeColor=#ffffff;strokeWidth=2;verticalLabelPosition=bottom;verticalAlign=top;align=center;outlineConnect=0;" vertex="1" parent="1">
          <mxGeometry x="2100" y="580" width="72" height="59" as="geometry" />
        </mxCell>
        <mxCell id="ZH0j8zu4PUCCIbpQVvuF-22" value="&lt;div&gt;MS WinServer 2016&lt;br&gt;&lt;/div&gt;&lt;div&gt;SVB-DC-02&lt;/div&gt;&lt;div&gt;ip - 10.84.4.9&lt;/div&gt;&lt;div&gt;Виртуальный сервер Active Directory&lt;/div&gt;&lt;div&gt;&lt;br&gt;&lt;/div&gt;" style="shape=mxgraph.cisco.servers.directory_server;html=1;pointerEvents=1;dashed=0;fillColor=#036897;strokeColor=#ffffff;strokeWidth=2;verticalLabelPosition=bottom;verticalAlign=top;align=center;outlineConnect=0;" vertex="1" parent="1">
          <mxGeometry x="2250" y="639" width="72" height="59" as="geometry" />
        </mxCell>
        <mxCell id="ZH0j8zu4PUCCIbpQVvuF-23" value="&lt;div&gt;MS Win10&lt;br&gt;&lt;/div&gt;&lt;div&gt;SVB-PC-SQL&lt;/div&gt;&lt;div&gt;ip - 10.84.4.29&lt;/div&gt;&lt;div&gt;Виртуальный сервер SQL баз:&lt;/div&gt;&lt;div&gt;ITInvent&lt;/div&gt;&lt;div&gt;Primavera&lt;br&gt;&lt;/div&gt;" style="shape=mxgraph.cisco.servers.directory_server;html=1;pointerEvents=1;dashed=0;fillColor=#036897;strokeColor=#ffffff;strokeWidth=2;verticalLabelPosition=bottom;verticalAlign=top;align=center;outlineConnect=0;" vertex="1" parent="1">
          <mxGeometry x="2100" y="717" width="72" height="59" as="geometry" />
        </mxCell>
        <mxCell id="ZH0j8zu4PUCCIbpQVvuF-24" value="&lt;div&gt;&lt;span tabindex=&quot;0&quot; class=&quot;summary-value&quot;&gt;&lt;span&gt;VMware Photon OS&lt;/span&gt;&lt;/span&gt;&lt;/div&gt;&lt;div&gt;SVB-VCENTER&lt;/div&gt;&lt;div&gt;ip - 10.84.4.110&lt;/div&gt;&lt;div&gt;Виртуальный сервер центра управления виртуальных машин&lt;br&gt;&lt;/div&gt;" style="shape=mxgraph.cisco.servers.directory_server;html=1;pointerEvents=1;dashed=0;fillColor=#036897;strokeColor=#ffffff;strokeWidth=2;verticalLabelPosition=bottom;verticalAlign=top;align=center;outlineConnect=0;" vertex="1" parent="1">
          <mxGeometry x="1970" y="790" width="72" height="59" as="geometry" />
        </mxCell>
        <mxCell id="ZH0j8zu4PUCCIbpQVvuF-25" value="" style="endArrow=none;dashed=1;html=1;dashPattern=1 3;strokeWidth=2;" edge="1" parent="1" target="ZH0j8zu4PUCCIbpQVvuF-16">
          <mxGeometry width="50" height="50" relative="1" as="geometry">
            <mxPoint x="2000" y="560" as="sourcePoint" />
            <mxPoint x="1840" y="781.7375000000002" as="targetPoint" />
          </mxGeometry>
        </mxCell>
        <mxCell id="ZH0j8zu4PUCCIbpQVvuF-26" value="" style="endArrow=none;dashed=1;html=1;dashPattern=1 3;strokeWidth=2;exitX=0;exitY=0.99;exitDx=0;exitDy=0;exitPerimeter=0;" edge="1" parent="1" source="ZH0j8zu4PUCCIbpQVvuF-21" target="ZH0j8zu4PUCCIbpQVvuF-16">
          <mxGeometry width="50" height="50" relative="1" as="geometry">
            <mxPoint x="1784.0000000000005" y="849.7625000000007" as="sourcePoint" />
            <mxPoint x="1850" y="791.7375000000002" as="targetPoint" />
          </mxGeometry>
        </mxCell>
        <mxCell id="ZH0j8zu4PUCCIbpQVvuF-27" value="" style="endArrow=none;dashed=1;html=1;dashPattern=1 3;strokeWidth=2;" edge="1" parent="1" source="ZH0j8zu4PUCCIbpQVvuF-22" target="ZH0j8zu4PUCCIbpQVvuF-16">
          <mxGeometry width="50" height="50" relative="1" as="geometry">
            <mxPoint x="1794.0000000000005" y="859.7625000000007" as="sourcePoint" />
            <mxPoint x="1860" y="801.7375000000002" as="targetPoint" />
          </mxGeometry>
        </mxCell>
        <mxCell id="ZH0j8zu4PUCCIbpQVvuF-28" value="" style="endArrow=none;dashed=1;html=1;dashPattern=1 3;strokeWidth=2;" edge="1" parent="1" source="ZH0j8zu4PUCCIbpQVvuF-16" target="ZH0j8zu4PUCCIbpQVvuF-23">
          <mxGeometry width="50" height="50" relative="1" as="geometry">
            <mxPoint x="1804.0000000000005" y="869.7625000000007" as="sourcePoint" />
            <mxPoint x="1870" y="811.7375000000002" as="targetPoint" />
          </mxGeometry>
        </mxCell>
        <mxCell id="ZH0j8zu4PUCCIbpQVvuF-29" value="" style="endArrow=none;dashed=1;html=1;dashPattern=1 3;strokeWidth=2;entryX=0.23;entryY=0.5;entryDx=0;entryDy=0;entryPerimeter=0;" edge="1" parent="1" source="ZH0j8zu4PUCCIbpQVvuF-16" target="ZH0j8zu4PUCCIbpQVvuF-24">
          <mxGeometry width="50" height="50" relative="1" as="geometry">
            <mxPoint x="1814.0000000000005" y="879.7625000000007" as="sourcePoint" />
            <mxPoint x="1880" y="821.7375000000002" as="targetPoint" />
          </mxGeometry>
        </mxCell>
        <mxCell id="ZH0j8zu4PUCCIbpQVvuF-30" value="&lt;div&gt;MS WinServer 2016&lt;br&gt;&lt;/div&gt;&lt;div&gt;SVB-FS-01&lt;/div&gt;&lt;div&gt;ip - 10.84.4.9&lt;/div&gt;&lt;div&gt;Виртуальный файловый сервер &lt;br&gt;&lt;/div&gt;&lt;div&gt;&lt;br&gt;&lt;/div&gt;" style="shape=mxgraph.cisco.servers.directory_server;html=1;pointerEvents=1;dashed=0;fillColor=#036897;strokeColor=#ffffff;strokeWidth=2;verticalLabelPosition=bottom;verticalAlign=top;align=center;outlineConnect=0;" vertex="1" parent="1">
          <mxGeometry x="1970" y="1060" width="72" height="59" as="geometry" />
        </mxCell>
        <mxCell id="ZH0j8zu4PUCCIbpQVvuF-31" value="&lt;div&gt;Debian10&lt;br&gt;&lt;/div&gt;&lt;div&gt;SVB-VZG-SQUID01&lt;/div&gt;&lt;div&gt;ip - 10.84.4.114&lt;/div&gt;&lt;div&gt;Виртуальный прокси-сервер SQUID&lt;br&gt;&lt;/div&gt;&lt;div&gt;&lt;br&gt;&lt;/div&gt;" style="shape=mxgraph.cisco.servers.directory_server;html=1;pointerEvents=1;dashed=0;fillColor=#036897;strokeColor=#ffffff;strokeWidth=2;verticalLabelPosition=bottom;verticalAlign=top;align=center;outlineConnect=0;" vertex="1" parent="1">
          <mxGeometry x="2000" y="1200" width="72" height="59" as="geometry" />
        </mxCell>
        <mxCell id="ZH0j8zu4PUCCIbpQVvuF-32" value="&lt;div&gt;MS WinServer 2016&lt;br&gt;&lt;/div&gt;&lt;div&gt;SVB-DC-01&lt;/div&gt;&lt;div&gt;ip - 10.84.4.25&lt;/div&gt;&lt;div&gt;Виртуальный сервер Active Directory&lt;/div&gt;&lt;div&gt;Сервисы&lt;/div&gt;&lt;div&gt;DNS&lt;/div&gt;&lt;div&gt;DHCP: pool voip - 10.84.3.0/24&lt;/div&gt;&lt;div&gt;&amp;nbsp;&amp;nbsp;&amp;nbsp;&amp;nbsp;&amp;nbsp;&amp;nbsp;&amp;nbsp;&amp;nbsp;&amp;nbsp;&amp;nbsp;&amp;nbsp;&amp;nbsp;&amp;nbsp; pool user - 10.84.6.0/24&lt;/div&gt;&lt;div&gt;&amp;nbsp;&amp;nbsp;&amp;nbsp;&amp;nbsp;&amp;nbsp;&amp;nbsp;&amp;nbsp;&amp;nbsp;&amp;nbsp;&amp;nbsp;&amp;nbsp;&amp;nbsp;&amp;nbsp;&amp;nbsp;&amp;nbsp;&amp;nbsp;&amp;nbsp;&amp;nbsp;&amp;nbsp;&amp;nbsp;&amp;nbsp; pool corp_wifi - 10.84.9.0/24&lt;br&gt;&lt;/div&gt;" style="shape=mxgraph.cisco.servers.directory_server;html=1;pointerEvents=1;dashed=0;fillColor=#036897;strokeColor=#ffffff;strokeWidth=2;verticalLabelPosition=bottom;verticalAlign=top;align=center;outlineConnect=0;" vertex="1" parent="1">
          <mxGeometry x="1838" y="1230" width="72" height="59" as="geometry" />
        </mxCell>
        <mxCell id="ZH0j8zu4PUCCIbpQVvuF-33" value="" style="endArrow=none;dashed=1;html=1;dashPattern=1 3;strokeWidth=2;" edge="1" parent="1" source="ZH0j8zu4PUCCIbpQVvuF-18" target="ZH0j8zu4PUCCIbpQVvuF-30">
          <mxGeometry width="50" height="50" relative="1" as="geometry">
            <mxPoint x="1950" y="1310" as="sourcePoint" />
            <mxPoint x="2000" y="1260" as="targetPoint" />
          </mxGeometry>
        </mxCell>
        <mxCell id="ZH0j8zu4PUCCIbpQVvuF-34" value="" style="endArrow=none;dashed=1;html=1;dashPattern=1 3;strokeWidth=2;" edge="1" parent="1" source="ZH0j8zu4PUCCIbpQVvuF-18" target="ZH0j8zu4PUCCIbpQVvuF-31">
          <mxGeometry width="50" height="50" relative="1" as="geometry">
            <mxPoint x="1950" y="1310" as="sourcePoint" />
            <mxPoint x="2000" y="1260" as="targetPoint" />
          </mxGeometry>
        </mxCell>
        <mxCell id="ZH0j8zu4PUCCIbpQVvuF-35" value="" style="endArrow=none;dashed=1;html=1;dashPattern=1 3;strokeWidth=2;" edge="1" parent="1" source="ZH0j8zu4PUCCIbpQVvuF-32" target="ZH0j8zu4PUCCIbpQVvuF-18">
          <mxGeometry width="50" height="50" relative="1" as="geometry">
            <mxPoint x="1950" y="1310" as="sourcePoint" />
            <mxPoint x="2000" y="1260" as="targetPoint" />
          </mxGeometry>
        </mxCell>
        <mxCell id="ZH0j8zu4PUCCIbpQVvuF-36" value="&lt;div&gt;Synology&lt;/div&gt;&lt;div&gt;Физический сервер архивных копий&lt;/div&gt;&lt;div&gt;svb-synol-01&lt;br&gt;&lt;/div&gt;" style="shape=mxgraph.cisco.storage.relational_database;html=1;pointerEvents=1;dashed=0;fillColor=#036897;strokeColor=#ffffff;strokeWidth=2;verticalLabelPosition=bottom;verticalAlign=top;align=center;outlineConnect=0;" vertex="1" parent="1">
          <mxGeometry x="1060" y="830" width="66" height="33" as="geometry" />
        </mxCell>
        <mxCell id="ZH0j8zu4PUCCIbpQVvuF-37" value="" style="endArrow=none;html=1;" edge="1" parent="1" source="ZH0j8zu4PUCCIbpQVvuF-36" target="ZH0j8zu4PUCCIbpQVvuF-5">
          <mxGeometry width="50" height="50" relative="1" as="geometry">
            <mxPoint x="1081" y="1088.1466030989268" as="sourcePoint" />
            <mxPoint x="1399.5" y="981.8533969010723" as="targetPoint" />
          </mxGeometry>
        </mxCell>
        <mxCell id="ZH0j8zu4PUCCIbpQVvuF-38" value="&lt;div&gt;Group PortChannel3&lt;/div&gt;&lt;div&gt;OutPort - gi0/13&lt;/div&gt;&lt;div&gt;OutPort - gi0/14&lt;/div&gt;&lt;div&gt;Vlan - Access 4&lt;br&gt;&lt;/div&gt;&lt;div&gt;Физический сервер Synology &lt;br&gt;&lt;/div&gt;&lt;div&gt;соеденен двумя патчкордами с&lt;/div&gt;&lt;div&gt;коммутатором агрегации&lt;/div&gt;&lt;div&gt;svb-ps-sw01&lt;br&gt;&lt;/div&gt;" style="edgeLabel;html=1;align=center;verticalAlign=middle;resizable=0;points=[];" vertex="1" connectable="0" parent="ZH0j8zu4PUCCIbpQVvuF-37">
          <mxGeometry x="-0.0438" y="1" relative="1" as="geometry">
            <mxPoint x="39" y="5" as="offset" />
          </mxGeometry>
        </mxCell>
        <mxCell id="ZH0j8zu4PUCCIbpQVvuF-39" value="" style="endArrow=none;html=1;" edge="1" parent="1" source="ZH0j8zu4PUCCIbpQVvuF-5" target="ZH0j8zu4PUCCIbpQVvuF-16">
          <mxGeometry width="50" height="50" relative="1" as="geometry">
            <mxPoint x="1640" y="1010" as="sourcePoint" />
            <mxPoint x="1690" y="960" as="targetPoint" />
          </mxGeometry>
        </mxCell>
        <mxCell id="ZH0j8zu4PUCCIbpQVvuF-40" value="&lt;div&gt;Group PortChannel1&lt;/div&gt;&lt;div&gt;OutPort - gi0/14&lt;/div&gt;&lt;div&gt;OutPort - gi0/15&lt;/div&gt;&lt;div&gt;Vlan - Trunk-2-4,6,7,9&lt;/div&gt;&lt;div&gt;Физический сервер SuperMikro A &lt;br&gt;&lt;/div&gt;&lt;div&gt;соеденен двумя патчкордами с&lt;/div&gt;&lt;div&gt;коммутатором агрегации&lt;/div&gt;&lt;div&gt;svb-ps-sw01&lt;br&gt;&lt;/div&gt;" style="edgeLabel;html=1;align=center;verticalAlign=middle;resizable=0;points=[];" vertex="1" connectable="0" parent="ZH0j8zu4PUCCIbpQVvuF-39">
          <mxGeometry x="0.1211" y="-3" relative="1" as="geometry">
            <mxPoint x="8" y="-18" as="offset" />
          </mxGeometry>
        </mxCell>
        <mxCell id="ZH0j8zu4PUCCIbpQVvuF-41" value="" style="endArrow=none;html=1;" edge="1" parent="1" source="ZH0j8zu4PUCCIbpQVvuF-5" target="ZH0j8zu4PUCCIbpQVvuF-18">
          <mxGeometry width="50" height="50" relative="1" as="geometry">
            <mxPoint x="1500.36231884058" y="940" as="sourcePoint" />
            <mxPoint x="1840" y="771.4028776978421" as="targetPoint" />
          </mxGeometry>
        </mxCell>
        <mxCell id="ZH0j8zu4PUCCIbpQVvuF-42" value="&lt;div&gt;Group PortChannel2&lt;/div&gt;&lt;div&gt;OutPort - gi0/19&lt;/div&gt;&lt;div&gt;OutPort - gi0/20&lt;/div&gt;&lt;div&gt;Vlan - Trunk-2-4,6,7,9&lt;/div&gt;&lt;div&gt;Физический сервер SuperMikro B &lt;br&gt;&lt;/div&gt;&lt;div&gt;соеденен двумя патчкордами с&lt;/div&gt;&lt;div&gt;коммутатором агрегации&lt;/div&gt;&lt;div&gt;svb-ps-sw01&lt;br&gt;&lt;/div&gt;" style="edgeLabel;html=1;align=center;verticalAlign=middle;resizable=0;points=[];" vertex="1" connectable="0" parent="ZH0j8zu4PUCCIbpQVvuF-41">
          <mxGeometry x="0.1211" y="-3" relative="1" as="geometry">
            <mxPoint as="offset" />
          </mxGeometry>
        </mxCell>
        <mxCell id="ZH0j8zu4PUCCIbpQVvuF-44" value="" style="endArrow=none;html=1;rounded=0;" edge="1" parent="1" source="ZH0j8zu4PUCCIbpQVvuF-8" target="ZH0j8zu4PUCCIbpQVvuF-5">
          <mxGeometry width="50" height="50" relative="1" as="geometry">
            <mxPoint x="1360" y="1150" as="sourcePoint" />
            <mxPoint x="1410" y="1100" as="targetPoint" />
          </mxGeometry>
        </mxCell>
        <mxCell id="ZH0j8zu4PUCCIbpQVvuF-45" value="&amp;nbsp;ip - 10.84.0.41&amp;nbsp;" style="edgeLabel;html=1;align=center;verticalAlign=middle;resizable=0;points=[];fontSize=12;" vertex="1" connectable="0" parent="ZH0j8zu4PUCCIbpQVvuF-44">
          <mxGeometry x="-0.3072" y="-1" relative="1" as="geometry">
            <mxPoint as="offset" />
          </mxGeometry>
        </mxCell>
        <mxCell id="ZH0j8zu4PUCCIbpQVvuF-46" value="&lt;div&gt;Cisco C2960&lt;/div&gt;&lt;div&gt;Коммутатор доступа&lt;/div&gt;&lt;div&gt;svb-ghk-sw_GEO&lt;/div&gt;" style="shape=mxgraph.cisco.switches.layer_2_remote_switch;html=1;pointerEvents=1;dashed=0;fillColor=#036897;strokeColor=#ffffff;strokeWidth=2;verticalLabelPosition=bottom;verticalAlign=top;align=center;outlineConnect=0;" vertex="1" parent="1">
          <mxGeometry x="1010" y="1090" width="101" height="50" as="geometry" />
        </mxCell>
        <mxCell id="ZH0j8zu4PUCCIbpQVvuF-47" value="" style="endArrow=none;html=1;rounded=0;fontSize=12;" edge="1" parent="1" source="ZH0j8zu4PUCCIbpQVvuF-46" target="ZH0j8zu4PUCCIbpQVvuF-8">
          <mxGeometry width="50" height="50" relative="1" as="geometry">
            <mxPoint x="1300" y="1130" as="sourcePoint" />
            <mxPoint x="1350" y="1080" as="targetPoint" />
          </mxGeometry>
        </mxCell>
        <mxCell id="ZH0j8zu4PUCCIbpQVvuF-48" value="&amp;nbsp;ip - 10.84.0.42&amp;nbsp;" style="edgeLabel;html=1;align=center;verticalAlign=middle;resizable=0;points=[];fontSize=12;" vertex="1" connectable="0" parent="ZH0j8zu4PUCCIbpQVvuF-47">
          <mxGeometry x="-0.243" y="-1" relative="1" as="geometry">
            <mxPoint as="offset" />
          </mxGeometry>
        </mxCell>
        <mxCell id="ZH0j8zu4PUCCIbpQVvuF-49" value="&lt;div&gt;Cisco C2960&lt;/div&gt;&lt;div&gt;Коммутатор доступа&lt;/div&gt;&lt;div&gt;svb-ghk-sw_PNR&lt;/div&gt;" style="shape=mxgraph.cisco.switches.layer_2_remote_switch;html=1;pointerEvents=1;dashed=0;fillColor=#036897;strokeColor=#ffffff;strokeWidth=2;verticalLabelPosition=bottom;verticalAlign=top;align=center;outlineConnect=0;" vertex="1" parent="1">
          <mxGeometry x="810" y="1230" width="101" height="50" as="geometry" />
        </mxCell>
        <mxCell id="ZH0j8zu4PUCCIbpQVvuF-50" value="" style="endArrow=none;html=1;rounded=0;fontSize=12;" edge="1" parent="1" source="ZH0j8zu4PUCCIbpQVvuF-49" target="ZH0j8zu4PUCCIbpQVvuF-46">
          <mxGeometry width="50" height="50" relative="1" as="geometry">
            <mxPoint x="1010" y="1220" as="sourcePoint" />
            <mxPoint x="1060" y="1170" as="targetPoint" />
          </mxGeometry>
        </mxCell>
        <mxCell id="ZH0j8zu4PUCCIbpQVvuF-51" value="&lt;div&gt;Cisco C2960&lt;/div&gt;&lt;div&gt;Коммутатор доступа&lt;/div&gt;&lt;div&gt;svb-ghk-sw_SK&lt;/div&gt;" style="shape=mxgraph.cisco.switches.layer_2_remote_switch;html=1;pointerEvents=1;dashed=0;fillColor=#036897;strokeColor=#ffffff;strokeWidth=2;verticalLabelPosition=bottom;verticalAlign=top;align=center;outlineConnect=0;" vertex="1" parent="1">
          <mxGeometry x="959" y="1270" width="101" height="50" as="geometry" />
        </mxCell>
        <mxCell id="ZH0j8zu4PUCCIbpQVvuF-52" value="" style="endArrow=none;html=1;rounded=0;fontSize=12;" edge="1" parent="1" source="ZH0j8zu4PUCCIbpQVvuF-51" target="ZH0j8zu4PUCCIbpQVvuF-46">
          <mxGeometry width="50" height="50" relative="1" as="geometry">
            <mxPoint x="1010" y="1220" as="sourcePoint" />
            <mxPoint x="1060" y="1170" as="targetPoint" />
          </mxGeometry>
        </mxCell>
        <mxCell id="ZH0j8zu4PUCCIbpQVvuF-53" value="&amp;nbsp;ip - 10.84.0.43" style="edgeLabel;html=1;align=center;verticalAlign=middle;resizable=0;points=[];fontSize=12;" vertex="1" connectable="0" parent="ZH0j8zu4PUCCIbpQVvuF-52">
          <mxGeometry x="-0.4036" y="-3" relative="1" as="geometry">
            <mxPoint as="offset" />
          </mxGeometry>
        </mxCell>
        <mxCell id="ZH0j8zu4PUCCIbpQVvuF-54" value="&lt;div&gt;Cisco C2960&lt;/div&gt;&lt;div&gt;Коммутатор доступа&lt;/div&gt;&lt;div&gt;svb-ghk-sw_SKZ&lt;/div&gt;" style="shape=mxgraph.cisco.switches.layer_2_remote_switch;html=1;pointerEvents=1;dashed=0;fillColor=#036897;strokeColor=#ffffff;strokeWidth=2;verticalLabelPosition=bottom;verticalAlign=top;align=center;outlineConnect=0;" vertex="1" parent="1">
          <mxGeometry x="1126" y="1270" width="101" height="50" as="geometry" />
        </mxCell>
        <mxCell id="ZH0j8zu4PUCCIbpQVvuF-55" value="" style="endArrow=none;html=1;rounded=0;fontSize=12;" edge="1" parent="1" source="ZH0j8zu4PUCCIbpQVvuF-54" target="ZH0j8zu4PUCCIbpQVvuF-46">
          <mxGeometry width="50" height="50" relative="1" as="geometry">
            <mxPoint x="1010" y="1220" as="sourcePoint" />
            <mxPoint x="1060" y="1170" as="targetPoint" />
          </mxGeometry>
        </mxCell>
        <mxCell id="ZH0j8zu4PUCCIbpQVvuF-56" value="&amp;nbsp;ip 10.84.0.44" style="edgeLabel;html=1;align=center;verticalAlign=middle;resizable=0;points=[];fontSize=12;" vertex="1" connectable="0" parent="ZH0j8zu4PUCCIbpQVvuF-55">
          <mxGeometry x="-0.4894" relative="1" as="geometry">
            <mxPoint as="offset" />
          </mxGeometry>
        </mxCell>
        <mxCell id="ZH0j8zu4PUCCIbpQVvuF-57" value="Nanostation m2" style="shape=mxgraph.cisco.wireless.wireless;sketch=0;html=1;pointerEvents=1;dashed=0;fillColor=#036897;strokeColor=#ffffff;strokeWidth=2;verticalLabelPosition=bottom;verticalAlign=top;align=center;outlineConnect=0;fontSize=12;" vertex="1" parent="1">
          <mxGeometry x="990" y="1420" width="37" height="67" as="geometry" />
        </mxCell>
        <mxCell id="ZH0j8zu4PUCCIbpQVvuF-58" value="Rocket M2" style="shape=mxgraph.cisco.wireless.satellite;sketch=0;html=1;pointerEvents=1;dashed=0;fillColor=#036897;strokeColor=#ffffff;strokeWidth=2;verticalLabelPosition=bottom;verticalAlign=top;align=center;outlineConnect=0;fontSize=12;" vertex="1" parent="1">
          <mxGeometry x="942.5" y="1580" width="134" height="45" as="geometry" />
        </mxCell>
        <mxCell id="ZH0j8zu4PUCCIbpQVvuF-59" value="" style="endArrow=none;html=1;rounded=0;fontSize=12;" edge="1" parent="1" source="ZH0j8zu4PUCCIbpQVvuF-57" target="ZH0j8zu4PUCCIbpQVvuF-51">
          <mxGeometry width="50" height="50" relative="1" as="geometry">
            <mxPoint x="1100" y="1480" as="sourcePoint" />
            <mxPoint x="1150" y="1430" as="targetPoint" />
          </mxGeometry>
        </mxCell>
        <mxCell id="ZH0j8zu4PUCCIbpQVvuF-60" value="&amp;nbsp;ip - 10.84.0.20&amp;nbsp;" style="edgeLabel;html=1;align=center;verticalAlign=middle;resizable=0;points=[];fontSize=12;" vertex="1" connectable="0" parent="ZH0j8zu4PUCCIbpQVvuF-59">
          <mxGeometry x="-0.3581" y="-2" relative="1" as="geometry">
            <mxPoint x="-1" y="22" as="offset" />
          </mxGeometry>
        </mxCell>
        <mxCell id="ZH0j8zu4PUCCIbpQVvuF-61" value="" style="endArrow=none;dashed=1;html=1;rounded=0;fontSize=12;" edge="1" parent="1" source="ZH0j8zu4PUCCIbpQVvuF-58" target="ZH0j8zu4PUCCIbpQVvuF-57">
          <mxGeometry width="50" height="50" relative="1" as="geometry">
            <mxPoint x="1000" y="1560" as="sourcePoint" />
            <mxPoint x="1050" y="1510" as="targetPoint" />
          </mxGeometry>
        </mxCell>
        <mxCell id="ZH0j8zu4PUCCIbpQVvuF-62" value="&amp;nbsp;ip - 10.84.0.21&amp;nbsp;" style="edgeLabel;html=1;align=center;verticalAlign=middle;resizable=0;points=[];fontSize=12;" vertex="1" connectable="0" parent="ZH0j8zu4PUCCIbpQVvuF-61">
          <mxGeometry x="-0.2948" y="-1" relative="1" as="geometry">
            <mxPoint x="1" y="41" as="offset" />
          </mxGeometry>
        </mxCell>
        <mxCell id="ZH0j8zu4PUCCIbpQVvuF-63" value="&lt;div&gt;Cisco C2960&lt;/div&gt;&lt;div&gt;Коммутатор доступа&lt;/div&gt;&lt;div&gt;svb-ghk-sw_OBS&lt;/div&gt;" style="shape=mxgraph.cisco.switches.layer_2_remote_switch;html=1;pointerEvents=1;dashed=0;fillColor=#036897;strokeColor=#ffffff;strokeWidth=2;verticalLabelPosition=bottom;verticalAlign=top;align=center;outlineConnect=0;" vertex="1" parent="1">
          <mxGeometry x="740" y="1580" width="101" height="50" as="geometry" />
        </mxCell>
        <mxCell id="ZH0j8zu4PUCCIbpQVvuF-64" value="" style="endArrow=none;html=1;rounded=0;fontSize=12;entryX=0.34;entryY=0.5;entryDx=0;entryDy=0;entryPerimeter=0;" edge="1" parent="1" source="ZH0j8zu4PUCCIbpQVvuF-63" target="ZH0j8zu4PUCCIbpQVvuF-58">
          <mxGeometry width="50" height="50" relative="1" as="geometry">
            <mxPoint x="890" y="1630" as="sourcePoint" />
            <mxPoint x="940" y="1580" as="targetPoint" />
          </mxGeometry>
        </mxCell>
        <mxCell id="ZH0j8zu4PUCCIbpQVvuF-65" value="&amp;nbsp;ip - 10.84.0.46" style="edgeLabel;html=1;align=center;verticalAlign=middle;resizable=0;points=[];fontSize=12;" vertex="1" connectable="0" parent="ZH0j8zu4PUCCIbpQVvuF-64">
          <mxGeometry x="-0.3034" y="-3" relative="1" as="geometry">
            <mxPoint as="offset" />
          </mxGeometry>
        </mxCell>
        <mxCell id="ZH0j8zu4PUCCIbpQVvuF-66" value="Nanostation m2&lt;br&gt;Прорабки УСР" style="shape=mxgraph.cisco.wireless.wireless;sketch=0;html=1;pointerEvents=1;dashed=0;fillColor=#036897;strokeColor=#ffffff;strokeWidth=2;verticalLabelPosition=bottom;verticalAlign=top;align=center;outlineConnect=0;fontSize=12;" vertex="1" parent="1">
          <mxGeometry x="911" y="1720" width="37" height="67" as="geometry" />
        </mxCell>
        <mxCell id="ZH0j8zu4PUCCIbpQVvuF-67" value="Nanostation m2&lt;br&gt;Прорабки СКЗ" style="shape=mxgraph.cisco.wireless.wireless;sketch=0;html=1;pointerEvents=1;dashed=0;fillColor=#036897;strokeColor=#ffffff;strokeWidth=2;verticalLabelPosition=bottom;verticalAlign=top;align=center;outlineConnect=0;fontSize=12;" vertex="1" parent="1">
          <mxGeometry x="1010" y="1740" width="37" height="67" as="geometry" />
        </mxCell>
        <mxCell id="ZH0j8zu4PUCCIbpQVvuF-68" value="Nanostation m2&lt;br&gt;Общежитие 1301" style="shape=mxgraph.cisco.wireless.wireless;sketch=0;html=1;pointerEvents=1;dashed=0;fillColor=#036897;strokeColor=#ffffff;strokeWidth=2;verticalLabelPosition=bottom;verticalAlign=top;align=center;outlineConnect=0;fontSize=12;" vertex="1" parent="1">
          <mxGeometry x="1111" y="1720" width="37" height="67" as="geometry" />
        </mxCell>
        <mxCell id="ZH0j8zu4PUCCIbpQVvuF-69" value="" style="endArrow=none;dashed=1;html=1;rounded=0;fontSize=12;" edge="1" parent="1" source="ZH0j8zu4PUCCIbpQVvuF-66" target="ZH0j8zu4PUCCIbpQVvuF-58">
          <mxGeometry width="50" height="50" relative="1" as="geometry">
            <mxPoint x="1030" y="1670" as="sourcePoint" />
            <mxPoint x="1080" y="1620" as="targetPoint" />
          </mxGeometry>
        </mxCell>
        <mxCell id="ZH0j8zu4PUCCIbpQVvuF-70" value="&amp;nbsp;ip - 10.84.0.33&amp;nbsp;" style="edgeLabel;html=1;align=center;verticalAlign=middle;resizable=0;points=[];fontSize=12;" vertex="1" connectable="0" parent="ZH0j8zu4PUCCIbpQVvuF-69">
          <mxGeometry x="-0.652" relative="1" as="geometry">
            <mxPoint x="-1" as="offset" />
          </mxGeometry>
        </mxCell>
        <mxCell id="ZH0j8zu4PUCCIbpQVvuF-71" value="" style="endArrow=none;dashed=1;html=1;rounded=0;fontSize=12;" edge="1" parent="1" source="ZH0j8zu4PUCCIbpQVvuF-67" target="ZH0j8zu4PUCCIbpQVvuF-58">
          <mxGeometry width="50" height="50" relative="1" as="geometry">
            <mxPoint x="1030" y="1670" as="sourcePoint" />
            <mxPoint x="1080" y="1620" as="targetPoint" />
          </mxGeometry>
        </mxCell>
        <mxCell id="ZH0j8zu4PUCCIbpQVvuF-72" value="&amp;nbsp;ip - 10.84.0.29&amp;nbsp;" style="edgeLabel;html=1;align=center;verticalAlign=middle;resizable=0;points=[];fontSize=12;" vertex="1" connectable="0" parent="ZH0j8zu4PUCCIbpQVvuF-71">
          <mxGeometry x="-0.7241" y="-1" relative="1" as="geometry">
            <mxPoint as="offset" />
          </mxGeometry>
        </mxCell>
        <mxCell id="ZH0j8zu4PUCCIbpQVvuF-73" value="" style="endArrow=none;dashed=1;html=1;rounded=0;fontSize=12;" edge="1" parent="1" source="ZH0j8zu4PUCCIbpQVvuF-68" target="ZH0j8zu4PUCCIbpQVvuF-58">
          <mxGeometry width="50" height="50" relative="1" as="geometry">
            <mxPoint x="1030" y="1670" as="sourcePoint" />
            <mxPoint x="1080" y="1620" as="targetPoint" />
          </mxGeometry>
        </mxCell>
        <mxCell id="ZH0j8zu4PUCCIbpQVvuF-74" value="&amp;nbsp;ip - 10.84.0.27" style="edgeLabel;html=1;align=center;verticalAlign=middle;resizable=0;points=[];fontSize=12;" vertex="1" connectable="0" parent="ZH0j8zu4PUCCIbpQVvuF-73">
          <mxGeometry x="-0.3975" y="1" relative="1" as="geometry">
            <mxPoint as="offset" />
          </mxGeometry>
        </mxCell>
        <mxCell id="ZH0j8zu4PUCCIbpQVvuF-75" value="&lt;div&gt;Cisco C2960&lt;/div&gt;&lt;div&gt;Коммутатор доступа&lt;/div&gt;&lt;div&gt;svb-ghk-sw_USR&lt;/div&gt;" style="shape=mxgraph.cisco.switches.layer_2_remote_switch;html=1;pointerEvents=1;dashed=0;fillColor=#036897;strokeColor=#ffffff;strokeWidth=2;verticalLabelPosition=bottom;verticalAlign=top;align=center;outlineConnect=0;" vertex="1" parent="1">
          <mxGeometry x="810" y="1880" width="101" height="50" as="geometry" />
        </mxCell>
        <mxCell id="ZH0j8zu4PUCCIbpQVvuF-76" value="" style="endArrow=none;html=1;rounded=0;fontSize=12;" edge="1" parent="1" source="ZH0j8zu4PUCCIbpQVvuF-75" target="ZH0j8zu4PUCCIbpQVvuF-66">
          <mxGeometry width="50" height="50" relative="1" as="geometry">
            <mxPoint x="980" y="1800" as="sourcePoint" />
            <mxPoint x="1030" y="1750" as="targetPoint" />
          </mxGeometry>
        </mxCell>
        <mxCell id="ZH0j8zu4PUCCIbpQVvuF-77" value="&amp;nbsp;ip - 10.84.0.45&amp;nbsp;" style="edgeLabel;html=1;align=center;verticalAlign=middle;resizable=0;points=[];fontSize=12;" vertex="1" connectable="0" parent="ZH0j8zu4PUCCIbpQVvuF-76">
          <mxGeometry x="-0.7055" y="-1" relative="1" as="geometry">
            <mxPoint as="offset" />
          </mxGeometry>
        </mxCell>
        <mxCell id="ZH0j8zu4PUCCIbpQVvuF-78" value="&lt;div&gt;Cisco C2960&lt;/div&gt;&lt;div&gt;Коммутатор доступа&lt;/div&gt;&lt;div&gt;svb-ghk-sw_DP&lt;/div&gt;" style="shape=mxgraph.cisco.switches.layer_2_remote_switch;html=1;pointerEvents=1;dashed=0;fillColor=#036897;strokeColor=#ffffff;strokeWidth=2;verticalLabelPosition=bottom;verticalAlign=top;align=center;outlineConnect=0;" vertex="1" parent="1">
          <mxGeometry x="978" y="1890" width="101" height="50" as="geometry" />
        </mxCell>
        <mxCell id="ZH0j8zu4PUCCIbpQVvuF-79" value="" style="endArrow=none;html=1;rounded=0;fontSize=12;" edge="1" parent="1" source="ZH0j8zu4PUCCIbpQVvuF-78" target="ZH0j8zu4PUCCIbpQVvuF-67">
          <mxGeometry width="50" height="50" relative="1" as="geometry">
            <mxPoint x="980" y="1880" as="sourcePoint" />
            <mxPoint x="1030" y="1830" as="targetPoint" />
          </mxGeometry>
        </mxCell>
        <mxCell id="ZH0j8zu4PUCCIbpQVvuF-80" value="&amp;nbsp;ip - 10.84.0.40&amp;nbsp;" style="edgeLabel;html=1;align=center;verticalAlign=middle;resizable=0;points=[];fontSize=12;" vertex="1" connectable="0" parent="ZH0j8zu4PUCCIbpQVvuF-79">
          <mxGeometry x="-0.5663" y="-1" relative="1" as="geometry">
            <mxPoint as="offset" />
          </mxGeometry>
        </mxCell>
        <mxCell id="ZH0j8zu4PUCCIbpQVvuF-81" value="&lt;div&gt;Cisco C2960&lt;/div&gt;&lt;div&gt;Коммутатор доступа&lt;/div&gt;&lt;div&gt;svb-ps-sw11&lt;/div&gt;" style="shape=mxgraph.cisco.switches.layer_2_remote_switch;html=1;pointerEvents=1;dashed=0;fillColor=#036897;strokeColor=#ffffff;strokeWidth=2;verticalLabelPosition=bottom;verticalAlign=top;align=center;outlineConnect=0;" vertex="1" parent="1">
          <mxGeometry x="1126" y="1880" width="101" height="50" as="geometry" />
        </mxCell>
        <mxCell id="ZH0j8zu4PUCCIbpQVvuF-82" value="" style="endArrow=none;html=1;rounded=0;fontSize=12;" edge="1" parent="1" source="ZH0j8zu4PUCCIbpQVvuF-81" target="ZH0j8zu4PUCCIbpQVvuF-68">
          <mxGeometry width="50" height="50" relative="1" as="geometry">
            <mxPoint x="980" y="1800" as="sourcePoint" />
            <mxPoint x="1030" y="1750" as="targetPoint" />
          </mxGeometry>
        </mxCell>
        <mxCell id="ZH0j8zu4PUCCIbpQVvuF-83" value="&amp;nbsp;ip - 10.84.0.12" style="edgeLabel;html=1;align=center;verticalAlign=middle;resizable=0;points=[];fontSize=12;" vertex="1" connectable="0" parent="ZH0j8zu4PUCCIbpQVvuF-82">
          <mxGeometry x="-0.6748" y="1" relative="1" as="geometry">
            <mxPoint as="offset" />
          </mxGeometry>
        </mxCell>
        <mxCell id="ZH0j8zu4PUCCIbpQVvuF-84" value="Nanostation m2&lt;br&gt;Прорабка сварщиков" style="shape=mxgraph.cisco.wireless.wireless;sketch=0;html=1;pointerEvents=1;dashed=0;fillColor=#036897;strokeColor=#ffffff;strokeWidth=2;verticalLabelPosition=bottom;verticalAlign=top;align=center;outlineConnect=0;fontSize=12;" vertex="1" parent="1">
          <mxGeometry x="1220" y="1673" width="37" height="67" as="geometry" />
        </mxCell>
        <mxCell id="ZH0j8zu4PUCCIbpQVvuF-85" value="Nanostation m2&lt;br&gt;Столовая" style="shape=mxgraph.cisco.wireless.wireless;sketch=0;html=1;pointerEvents=1;dashed=0;fillColor=#036897;strokeColor=#ffffff;strokeWidth=2;verticalLabelPosition=bottom;verticalAlign=top;align=center;outlineConnect=0;fontSize=12;" vertex="1" parent="1">
          <mxGeometry x="1280" y="1563" width="37" height="67" as="geometry" />
        </mxCell>
        <mxCell id="ZH0j8zu4PUCCIbpQVvuF-86" value="" style="endArrow=none;dashed=1;html=1;rounded=0;fontSize=12;entryX=0;entryY=0.5;entryDx=0;entryDy=0;entryPerimeter=0;" edge="1" parent="1" source="ZH0j8zu4PUCCIbpQVvuF-58" target="ZH0j8zu4PUCCIbpQVvuF-84">
          <mxGeometry width="50" height="50" relative="1" as="geometry">
            <mxPoint x="880" y="1620" as="sourcePoint" />
            <mxPoint x="930" y="1570" as="targetPoint" />
          </mxGeometry>
        </mxCell>
        <mxCell id="ZH0j8zu4PUCCIbpQVvuF-87" value="&amp;nbsp;ip - 10.84.0.25" style="edgeLabel;html=1;align=center;verticalAlign=middle;resizable=0;points=[];fontSize=12;" vertex="1" connectable="0" parent="ZH0j8zu4PUCCIbpQVvuF-86">
          <mxGeometry x="0.3436" y="-2" relative="1" as="geometry">
            <mxPoint as="offset" />
          </mxGeometry>
        </mxCell>
        <mxCell id="ZH0j8zu4PUCCIbpQVvuF-88" value="" style="endArrow=none;dashed=1;html=1;rounded=0;fontSize=12;" edge="1" parent="1" source="ZH0j8zu4PUCCIbpQVvuF-58" target="ZH0j8zu4PUCCIbpQVvuF-85">
          <mxGeometry width="50" height="50" relative="1" as="geometry">
            <mxPoint x="880" y="1620" as="sourcePoint" />
            <mxPoint x="930" y="1570" as="targetPoint" />
          </mxGeometry>
        </mxCell>
        <mxCell id="ZH0j8zu4PUCCIbpQVvuF-89" value="&amp;nbsp;ip - 10.84.0.24" style="edgeLabel;html=1;align=center;verticalAlign=middle;resizable=0;points=[];fontSize=12;" vertex="1" connectable="0" parent="ZH0j8zu4PUCCIbpQVvuF-88">
          <mxGeometry x="0.3979" y="-1" relative="1" as="geometry">
            <mxPoint as="offset" />
          </mxGeometry>
        </mxCell>
      </root>
    </mxGraphModel>
  </diagram>
</mxfile>
